<?xml version="1.0"?><svg width="750" height="1038" xmlns="http://www.w3.org/2000/svg">
 <title>Fishing Pole</title>
 <g>
  <title>Layer 1</title>
  <path id="svg_1" fill="#0D0F10" fill-rule="evenodd" stroke="#0D0F10" stroke-width="1px" d="m136,754l0,1l0,0l0,0l-1,1l-1,2l0,0l0,0l0,-1l0,0l-1,0l0,0l0,-1l-1,0l0,-2l0,-2l-1,-2q-1,-1 -1,-4l0,-3l-1,-1l-1,-2l0,0l0,0l0,-1l0,0l-1,0l0,-1l0,0l-1,0l0,0l0,0l-1,-1l-1,0l0,4l0,4l2,5q2,4 2,6l0,2l0,0l0,0l-1,1l-1,1l0,1l0,1l-1,0l0,0l0,-2l-1,-2l0,-1l0,-1l-4,0q-3,0 -6,-2q-4,-2 -6,-7q-2,-5 0,-11q0,-5 2,-8q1,-2 6,-5q6,-3 12,-1q6,2 9,5q3,3 3,9q0,7 -2,10q-2,4 -2,5q0,1 0,3zm-10,-22l-2,0l0,0l0,0l-1,0l0,0l-1,1l-1,1l0,0l-1,0l0,5q0,5 1,7l1,3l0,1l0,1l-1,0l0,1l-1,0l-2,0l-1,-1l-1,-1l-1,0l-1,0l0,-1l0,0l-1,0l0,-1l0,0l-1,0l0,0l0,0l0,-1l0,0l0,-7q0,-7 0,-9q2,-2 4,-4q3,-1 8,-1q6,0 9,2q3,3 3,8q0,6 -1,7q-2,1 -4,-5q-3,-5 -5,-6z"/>
  <path id="svg_2" fill="#ffffff" fill-rule="evenodd" stroke="#615E5A" stroke-width="1px" d="m125,793l-1,0l0,0q0,-1 0,-2q0,-2 2,-4l3,-3l6,-2q6,-4 8,-3q1,0 1,4q0,4 -4,6q-3,3 -9,3q-6,2 -6,1z"/>
  <path id="svg_3" fill="#ffffff" fill-rule="evenodd" stroke="#000000" stroke-width="1px" d="m104,689l0,-1l2,0l1,0l2,2q3,2 2,4q-1,1 -1,2l0,0l-8,10q-8,9 -15,20q-7,10 -7,11l0,0l-1,1l-1,1l0,1l0,1l-1,1l-1,2l0,1l0,1l1,0l0,0l0,-1l1,0l0,0l0,-1l0,0l0,0l1,-1l1,-1l0,-1l0,-1l1,-1l1,-1l10,-15q10,-15 16,-20q6,-5 8,-5q3,0 5,0q2,1 2,2q0,1 3,3q4,2 4,3q0,1 8,6q7,4 7,5q0,1 6,6q6,5 9,7q4,3 2,8q0,6 -2,9q-2,3 -2,4l0,1l-1,0l0,0l0,1l-1,0l0,1l0,1l-1,1l-1,2l0,0l0,0l0,1l0,0l1,0l0,1l1,0l1,0l0,-1l1,0l0,-1l0,-1l1,-1l1,-1l0,-1l0,-1l1,-1q1,-1 3,-5l2,-4l0,-1l0,-2l1,0l0,0l2,0l2,0l0,0l1,0l0,0l0,0l0,1l0,0l1,0l0,1l0,0l1,0l0,1l0,1l1,0l0,0l0,1l-1,0l0,1l0,1l-5,8q-5,7 -11,16q-6,8 -6,8l0,1l-2,0l-1,0l0,-1l-1,-1l0,-1q0,-1 -3,-2q-2,-1 -4,-2q-3,-1 -3,-6l-2,-5l0,-4l0,-3l0,-1q0,-2 0,-3q0,-1 2,-5q2,-3 2,-10q0,-6 -3,-9q-3,-3 -9,-5q-6,-2 -12,1q-5,3 -6,5q-2,3 -2,8q-2,6 0,11q2,5 6,7q3,2 6,2l4,0l0,1l0,1l1,2l0,2l0,2l1,1l0,9q0,8 -3,11q-3,3 -1,8q0,5 1,7l0,1l-1,0q-1,1 -5,1q-4,2 -11,2q-6,0 -9,-1l-3,-1l0,0l0,0l-1,-1l-1,0l0,-1q0,0 -1,0l0,0l0,0q0,0 -7,-6q-7,-4 -13,-12q-6,-8 -8,-16q-1,-7 2,-18q3,-11 11,-24q8,-13 18,-24l10,-11l0,0z"/>
  <path id="svg_4" fill="#ffffff" fill-rule="evenodd" stroke="#8D8E8E" stroke-width="1px" d="m126,732l-2,0l0,0l0,0l-1,0l0,0l-1,1l-1,1l0,0l-1,0l0,5q0,5 1,7l1,3l0,1l0,1l-1,0l0,1l-1,0l-2,0l-1,-1l-1,-1l-1,0l-1,0l0,-1l0,0l-1,0l0,-1l0,0l-1,0l0,0l0,0l0,-1l0,0l0,-7q0,-7 0,-9q2,-2 4,-4q3,-1 8,-1q6,0 9,2q3,3 3,8q0,6 -1,7q-2,1 -4,-5q-3,-5 -5,-6z"/>
  <path id="svg_5" fill="#000000" fill-rule="evenodd" stroke="#0F0F11" stroke-width="1px" d="m390,410l1,0l0,0q-1,0 -1,0l0,1l-4,5q-4,6 -5,6l0,0l0,0q0,0 -1,1l0,0l-6,9q-7,8 -8,9l0,0l0,0q0,1 0,1l-1,0l-11,14q-11,14 -15,20q-4,6 -4,7l-1,0l1,2q1,3 9,8q8,5 14,9q6,4 8,4q2,0 5,-4q3,-3 3,-4l0,-1l1,0l0,-1l0,0l1,0l0,0l0,0l0,0l1,0l0,-1l0,0l1,0l0,-1l1,0l1,0l0,1l1,0l0,0l0,1l0,0l-1,0l0,0l0,0l0,1l0,0l-1,1l-1,1l0,0l0,1l0,0l0,0l-1,1q0,1 -1,1q-1,0 -2,2q0,2 -1,3l-1,1l0,0l0,0l0,1l0,0l0,1l0,1l0,0l0,1l0,0l0,0l1,0l0,0l0,1l1,0l0,0l0,1l0,0l0,0l1,0l0,0l1,1l1,1l1,0l1,0l1,1l1,0l0,0l0,1l1,-1q2,0 2,0l0,-1l0,0l0,0l1,0l0,0l1,0l1,0l0,0l-1,0l0,1l0,1l-1,0l0,0l-1,1l-1,0l0,1l0,2l-13,20q-12,19 -26,38q-14,20 -14,21l0,1l-1,0l0,0l0,1l-1,0l0,1l0,1l-1,0l0,1l0,0l-1,0l0,0l0,1l0,0l0,0l-1,1l0,0l-1,0l-1,0l0,-1l1,-1l0,-1l0,-1l1,0l0,0l0,-1l1,0l0,-1l0,-1l1,0l0,-1l0,0q1,0 14,-20q13,-20 25,-38l12,-18l0,0l0,0l0,-1l0,-1l0,0l0,0l0,-1l0,0l-1,0l0,-1l-1,0l-1,0l0,-1l-1,0l0,0l0,-1l-1,0l-1,0l0,-1l0,0l-1,0l0,-1l0,0l-1,0l0,0l0,0l-2,-1l-2,0l-11,15q-11,16 -11,17l0,1l-1,0l0,0l0,1l-1,0l0,1l0,1l-1,0l0,0l0,0l0,-1l-1,0l-1,0l0,1l-1,0l0,0l0,1l-1,0l-1,0l0,-1l0,-1l1,0l0,0l0,-1l1,0l0,0l0,-1l0,0l0,0l1,0l0,0l0,-1l1,0l0,0l0,-1l0,0l0,0l1,-1q1,-1 10,-14q9,-13 10,-16l1,-4l0,0l0,-1l0,0l0,0l-1,0l0,0l-1,-1q-1,-1 -6,-3q-4,-2 -8,-3q-5,-1 -10,-5q-6,-4 -8,-5q-3,-1 -8,6q-6,6 -12,13q-6,8 -14,18l-8,9l0,0l0,1l0,0l-1,0l0,0l0,0l0,1l-1,0l0,0l0,1l0,0l0,0l-1,0l0,1l0,0l0,1l-1,0l0,0l0,1l0,1l-1,0l0,0l0,0l-1,0l0,-1l0,-1l1,-1l1,-1l0,0l0,0l0,-1l0,0l1,0l0,-1l0,0l1,0l0,-1l0,-1l1,0q0,0 2,-3q1,-2 4,-5q3,-2 4,-4q1,-3 7,-9q5,-5 7,-9q3,-4 7,-9q4,-5 6,-8q0,-3 -2,-7l-2,-3l0,-1l0,-2l2,0q2,0 4,2q2,0 4,1q3,1 10,-7q6,-8 10,-14q4,-6 22,-28q18,-22 20,-22z"/>
  <path id="svg_6" fill="#ffffff" fill-rule="evenodd" stroke="#C6C6C6" stroke-width="1px" d="m173,687l0,1l0,1l1,1l0,2l0,1l2,13q2,13 2,15q0,2 0,8l0,6l-1,0l0,1l0,0l-1,0l0,0l0,0l0,0l-1,0l-1,0l-1,0l0,-1l-1,0l0,0l0,-1l0,0l0,0l-1,0l0,0l0,-1l-1,0l0,0l0,-1l0,0q0,0 0,-5l0,-5l0,0q0,-1 0,-8q0,-6 -2,1l-1,7l0,2l-1,3l0,0l0,1l-1,0l-1,0l0,-1l0,0l-1,0l0,-1l0,0l-1,0l0,0l0,0l-1,-1l-1,-1l0,0q0,0 -19,-15l-19,-15l0,-1l0,-1l0,0q1,0 1,-1l0,0l0,0q0,-1 2,-1l2,-2l0,0l1,0l0,-2l0,-1l-2,0l-2,1l-2,2q-3,2 -4,2l-1,0l-1,-1l-1,0l0,-1l-1,0l0,0l0,0l0,-1l0,0l-1,0l0,-1l0,0l-1,0l0,0l0,0l0,-1l0,0l-1,0l0,-1l0,0l1,0l0,-1l0,-1l1,0l1,0l1,-1l1,-1l7,-2q7,-2 22,-3q15,-1 18,1q3,1 7,6q2,4 3,5z"/>
  <path id="svg_7" fill="#ffffff" fill-rule="evenodd" stroke="#B6B5B5" stroke-width="1px" d="m715,452q3,0 3,2q0,3 -3,3q-2,1 -2,-2q-1,-3 2,-3z"/>
  <path id="svg_8" fill="#000000" fill-rule="evenodd" stroke="#000000" stroke-width="1px" d="m147,867l1,0l0,0l0,1l0,0l0,0l1,1l0,1l-28,42q-29,41 -29,42l0,1l-1,0l0,0l0,0l-1,0l0,1l0,0l0,0l0,0l-1,0l0,1l-1,0l0,-1l0,0l0,0l-1,0l0,0l1,-1l1,0l0,-1l1,-1l0,0l0,-1l-2,0l-2,0l0,1l0,0l-1,0l0,1l-1,0l-1,0l0,-1l1,-1l0,0l0,0l1,-1l1,0l0,-1q0,-1 16,-24q16,-24 18,-28q2,-3 5,-6q3,-4 8,-10q5,-6 8,-10l3,-3l1,0l1,-1l0,0l0,0l1,0l0,0l0,-1z"/>
  <path id="svg_9" fill="#ffffff" fill-rule="evenodd" stroke="#353332" stroke-width="1px" d="m162,774q4,-6 6,-5q3,0 2,5q-2,4 -6,8q-4,4 -6,3q-2,-1 -1,-4q1,-3 5,-7z"/>
  <path id="svg_10" fill="#0F1011" fill-rule="evenodd" stroke="#0F1011" stroke-width="1px" d="m109,680l1,0l0,1q-1,1 -1,2l1,0l0,2l0,2l1,0l0,1l1,0l1,0l1,1l1,0l1,0l1,1l1,0q1,0 4,-2l2,-2l2,-1l2,0l0,1l0,2l-1,0l0,0l-2,2q-2,0 -2,1l0,0l0,0q-1,0 -1,1l0,0l0,2q-1,2 -4,2q-4,0 -6,0l-2,0l0,0q0,-1 1,-2q1,-2 -2,-4l-2,-2l-1,0l-2,0l0,1l0,0l-10,11q-10,11 -18,24q-8,13 -11,24q-3,11 -2,18q2,8 8,16q6,8 13,12q7,6 7,6l0,0l0,0q0,0 1,1l0,0l0,0l0,1l0,0l0,0l1,1l0,1l1,0l2,0l1,1l1,1l-4,0l-3,0l0,0l-1,-1l0,0l0,0l0,0l-1,-1l0,0q-1,0 -5,-3q-4,-3 -12,-12q-8,-9 -12,-17q-2,-8 -2,-16q2,-8 7,-19q5,-11 11,-21q6,-11 16,-20q10,-10 13,-13q3,-3 4,-3zm-19,123q0,0 1,0q0,1 -1,1q0,0 0,-1z"/>
  <path id="svg_11" fill="#ffffff" fill-rule="evenodd" stroke="#000000" stroke-width="1px" d="m355,530l11,-15l2,0l2,1l0,0l0,0l1,0l0,0l0,1l1,0l0,0l0,1l1,0l1,0l0,1l0,0l1,0l0,1l1,0l1,0l0,1l1,0l0,0l0,1l0,0l0,0l0,1l0,1l0,0l0,0l-12,18q-12,18 -25,38q-13,20 -14,20l0,0l0,1l-1,0l0,1l0,1l-1,0l0,1l0,0l-1,0l0,1l0,1l-1,1l0,1l0,0l-1,0l0,0l0,0l0,1l0,0l-1,1l-1,1l0,0l0,1l0,0l0,0l-1,0l0,0l-14,20q-13,20 -31,44q-16,24 -17,24l0,0l0,1l-1,0l0,0l0,1l-2,0l-2,0l0,-1l0,0l-1,0l0,-1l0,0l-1,0l0,0l0,0l0,-1l0,0l-1,0l0,-1l0,0l-1,0l0,0l0,0l0,-1l0,0l-1,0l0,-1l-1,0l-1,0l0,-1l-1,0l0,0l0,-1l0,0l0,0l0,-2q0,-3 21,-33q21,-30 49,-69l27,-39l0,0l1,0l0,-1l0,-1l1,0l0,-1l0,0l1,0l0,-1q0,-1 11,-17z"/>
  <path id="svg_12" fill="none" fill-rule="evenodd" stroke-width="1px" d="m169,831l0,-1l1,0l1,0l0,1l1,0l0,1l0,1l-1,1l-1,2l0,0l0,0l0,1l0,0l-1,1q0,1 1,1l1,0l0,1q0,1 -2,3q-3,2 -10,13q-7,11 -8,12l-1,1l0,0l0,1l0,0l-1,0l0,-1l-1,-1l0,0l0,0l0,-1l0,0l-1,0l0,1l0,0l-1,0l0,0l0,0l-1,1l-1,0l0,-1l0,-1l1,-1l1,-1l0,0l0,-1l0,0l0,0l1,-1q1,-1 5,-7q4,-6 4,-9q0,-3 4,-7l4,-5l1,0q1,0 1,-1l0,-1l0,0q1,-1 1,-1l1,0l0,0l0,0l0,-1l0,0l1,0z"/>
  <path id="svg_13" fill="#ffffff" fill-rule="evenodd" stroke="#B3B3B3" stroke-width="1px" d="m711,438l1,0l1,0l1,0l1,0l1,0l0,1l0,1l1,0l0,0l0,0q-1,1 -2,3q-2,1 -3,1l-2,0l0,-1l0,-1l-1,0l0,0l0,-1l0,0l0,0l0,-1l0,0l1,0l0,-1l0,-1l1,0z"/>
  <path id="svg_14" fill="#000000" fill-rule="evenodd" stroke="#000000" stroke-width="1px" d="m225,690l0,0l5,1q4,1 12,8q8,6 10,9q2,2 1,5q-1,3 -10,17q-9,12 -9,13l0,0l-1,1l-1,1l0,1l0,1l-1,0l0,1l0,0l-1,0l0,0l0,0l-2,1l-1,0l0,-1l1,-2l0,0l0,0l0,-1l0,0l1,-1l1,-1l0,-1l0,-1l1,0q0,-1 6,-10l5,-9l1,0l0,0l0,-1l1,0l0,0l0,-1l0,0l0,0l1,0l0,0l0,-1l1,0l0,-1l0,-1l1,-1l0,-2l-1,0l-1,0l0,1l-1,0l0,0l0,1l0,0l0,0l-1,1l-1,1l0,0l0,0l0,1l0,0l-11,17q-10,16 -20,31q-11,14 -11,15l0,1l0,0q0,1 0,1l-1,0l0,0q-1,0 -1,0l0,1l0,0q0,0 -1,1l0,0l-5,8q-6,8 -6,8l0,0l0,1l0,0l-1,0l0,1l0,0l-1,0l0,1l0,1l-1,0l0,0l0,1q1,0 1,1l0,0l0,0l0,0l0,1l-1,0l-3,6q-4,5 -4,6l0,0l-1,0l0,1l0,0l-1,0l0,0l0,0l0,1l0,0l-1,0l0,1l0,0l-1,0l0,1l0,1l-1,0l0,0l-1,0l-1,0l0,1l-1,0l0,1l0,1l-1,1l-1,1l0,1l0,1l0,0q-1,1 -1,1l-1,0l0,0l0,1l-3,5q-3,4 -3,5q0,1 -1,1q-1,1 -3,6q-2,4 -4,7q-2,3 -3,4l-1,1l0,0l0,0l0,1l0,0l-1,1l-1,1l0,1l0,1l-3,3q-3,4 -8,10q-5,6 -8,10q-3,3 -5,6q-2,4 -18,28q-16,23 -16,24q0,2 2,2l2,0l0,1l0,0l0,1q0,0 0,1l1,0l-1,1q0,2 -1,2q-1,0 -23,33q-22,33 -26,34q-3,1 -8,1q-4,0 -9,-4q-5,-2 -5,-3l0,0l1,0l1,0l0,-1l0,-1l-1,0l0,-1l0,0l-1,0l0,0q0,0 -1,1l-1,0l0,0q-1,-1 -1,-1l0,0l0,0l1,0l0,-2l0,-1l-1,0q-1,0 -1,-1q0,-1 -2,-1l-1,0l0,0q-1,0 -1,-1l0,-1l0,-1q0,0 1,-5q1,-5 3,-11q2,-5 22,-33q18,-28 32,-47q12,-19 48,-70q36,-52 41,-52q4,0 11,-7q6,-7 7,-10q1,-3 -1,-5q0,-1 0,-4q0,-3 2,-6q3,-4 9,-13q5,-9 21,-31l16,-22l0,0l1,0l0,-1l1,0l0,0l0,-1l0,0l0,0l1,0zm-44,119q1,0 1,0q0,1 0,1q-1,0 -1,-1zm-98,144q1,0 1,0q0,1 0,1q-1,0 -1,-1zm4,2q1,0 1,0q0,1 0,1l-1,0l0,-1z"/>
  <path id="svg_15" fill="#1E1E1E" fill-rule="evenodd" stroke="#1E1E1E" stroke-width="1px" d="m243,588l7,-6l-18,22q-18,22 -18,23l0,0l-1,0l0,1l0,0l-1,0l0,1l0,1l-1,0l0,0l0,1l-1,0l0,1l0,1l-1,0l-1,0l0,-1l0,0l-1,0l0,0l0,-1l0,0l0,-1l1,0l0,0l0,0l0,-1l0,0l1,0l0,-1l0,0l1,0l0,0l0,0l0,-1l0,0l1,0l0,-1l0,0l1,0l0,0l0,0l0,-1q0,0 2,-2q2,-3 12,-16q10,-14 17,-19z"/>
  <path id="svg_17" fill="#191919" fill-rule="evenodd" stroke="#191919" stroke-width="1px" d="m190,652l17,-21l1,0q1,1 1,1l0,0l0,0q0,0 -1,1l0,0l-12,16q-12,16 -17,21q-5,6 -5,8l0,1l0,0l-1,-1l-1,0l-1,0l0,-1l-1,0l0,-1l0,-1l-1,0l0,-1l-1,0l-1,0l0,-1l-1,0l0,-1l0,-1l1,0l1,1l0,0l0,0l1,0l0,0l0,1l1,0l0,0l0,1l1,0q1,0 19,-22z"/>
  <path id="svg_18" fill="#ffffff" fill-rule="evenodd" stroke="#023292" stroke-width="1px" d="m555,249l0,-1l3,0l2,0l0,1l0,0l1,0l0,1l0,0l1,0l0,3l0,3l-1,1l-1,1l0,0q0,0 -6,9q-5,8 -6,8q-1,1 -6,8l-4,7l-1,1l-1,1l0,0l0,0l0,1l0,0l-1,1l-1,1l0,1l0,1l0,0q0,0 -1,1l-1,1l-8,11q-8,12 -36,52q-27,40 -46,68q-18,28 -23,35q-5,7 -19,28q-15,21 -15,21l-1,0l0,1l0,1l-1,0l0,0l-1,1l-1,0l-1,0l-1,-1l-1,0l-1,0l-1,-1l-1,-1l0,0l-1,0l0,0l0,0l0,-1l0,0l-1,0l0,-1l0,0l-1,0l0,0l0,0l0,-1l0,0l0,-1l0,-1l0,0l0,-1l0,0l0,0l1,-1q1,-1 1,-3q1,-2 2,-2q1,0 1,-1l1,-1l0,0l0,0l0,-1l0,0l1,-1l1,-1l0,0l0,-1l0,0l0,0l1,0l0,0l0,-1l0,0l0,-1l1,0l0,0l0,0l0,-1l0,0l1,0l0,-1l0,0l1,0l0,-1q0,-1 12,-18q12,-17 30,-43q18,-26 49,-69q31,-44 41,-58l10,-14l0,0l0,0l1,0l0,-1l0,0l1,0l0,0l0,0l0,-1l0,0l7,-10q7,-10 11,-16q4,-6 5,-7q1,-2 1,-2l0,0l0,-1l0,0l1,0l0,-1l0,0l1,0l0,0l0,0l0,-1l0,0l1,0z"/>
  <path id="svg_19" fill="#171718" fill-rule="evenodd" stroke="#171718" stroke-width="1px" d="m170,722l0,0l0,0l0,0l-1,0l0,0l-1,0l0,0l0,0l0,0l-1,0l0,0l1,-7q2,-7 2,-1q0,7 0,8z"/>
  <path id="svg_20" fill="#E5E5E4" fill-rule="evenodd" stroke="#E5E5E4" stroke-width="1px" d="m708,367l-1,3l-3,0q-4,0 -3,-2q0,-2 3,-2q4,-1 4,1z"/>
  <path id="svg_21" fill="#000000" fill-rule="evenodd" stroke="#0D0D0E" stroke-width="1px" d="m339,549l0,0l1,1q0,0 1,0l0,1l-27,39q-28,39 -49,69q-21,30 -21,33l0,2l0,0l0,0l0,1l0,0l1,0l0,1l1,0l1,0l0,1l1,0l0,0l0,1l0,0l0,0l1,0l0,0l0,1l1,0l0,0l0,1l0,0l0,0l1,0l0,0l0,1l1,0l0,0l0,1l2,0l2,0l0,-1l0,0l1,0l0,-1l0,0q1,0 17,-24q18,-24 31,-44l14,-20l0,0l1,0l0,0l0,0l0,-1l0,0l1,-1l1,-1l0,0l0,-1l0,0l0,0l1,0l0,0l1,0l0,0l1,-1l1,0l0,1l0,1l-1,0l-1,0l0,1l0,1l-1,0l0,1l0,0l-1,0l0,1l0,1l-32,46q-32,47 -32,52q0,6 -4,11q-4,5 -18,24q-14,19 -30,41q-14,21 -15,22l0,0l0,0q0,0 -1,1l0,0l0,0q0,1 0,1l-1,0l-7,10q-6,11 -7,11l0,1l0,0l-1,0l0,0l0,0l0,1l0,0l-1,0l0,1l0,0l-1,0l0,1l0,1l-1,0l0,1l0,0l-1,0l0,1l0,0l0,0l0,0l0,-2l0,-1l0,0l0,-1l0,0l0,0l1,-2l1,-1l0,-1l0,-1l-1,0l0,-1l-1,0l-1,0l0,1l-1,0l0,0l0,1l0,0l0,0l-1,1l-1,1l0,0l0,0l-1,1l-1,0l0,-1l0,0l1,-1l1,-1l0,0l0,0l0,-1l0,0l1,-1l1,-1l0,-1l0,-1l1,0l0,-1l1,0l1,0l0,1l0,1l1,0l1,0l1,0l1,0l0,0l1,0l0,0l0,0l0,-1l0,0l1,0l0,-1l0,0l1,0l0,-1l0,-1l1,-1q1,-1 4,-6q3,-5 4,-5q1,0 9,-13q9,-13 17,-25l8,-12l0,-1l1,0l0,0l0,-1l0,0l0,0l1,-1l1,-1l0,-1l0,-1l1,-2l0,-1l-1,0l-1,1l0,0l-1,0l0,0l0,0l0,1l0,0l-1,0l0,1l0,0l-1,0l0,1l0,1l-10,12q-9,12 -10,13l0,0l0,0q0,1 0,1l-1,0l-5,9q-6,9 -6,10l0,1l-1,0l0,0l0,1l-1,0l0,0l0,1l0,0l0,0l-1,1l-1,1l0,0l0,0l0,0l0,0l0,1l-1,0l0,0l0,1l-1,0l-1,0l0,-1l1,-1l0,0l0,0l0,-1l0,0l1,0l0,-1l0,0l1,0l0,-1l0,-1l1,0l0,0l0,-1l1,0l0,0l0,-1l0,0q0,0 6,-10q6,-10 7,-10q1,0 11,-15q11,-15 21,-31l11,-17l0,0l0,-1l0,0l0,0l1,-1l1,-1l0,0l0,0l0,-1l0,0l1,0l0,-1l1,0l1,0l0,2l-1,1l0,1l0,1l-1,0l0,1l0,0l-1,0l0,0l0,0l0,1l0,0l-1,0l0,1l0,0l-1,0l-5,9q-6,9 -6,10l-1,0l0,1l0,1l-1,1l-1,1l0,0l0,1l0,0l0,0l-1,2l0,1l1,0l2,-1l0,0l0,0l1,0l0,0l0,-1l1,0l0,-1l0,-1l1,-1l1,-1l0,0q0,-1 9,-13q9,-14 10,-17q1,-3 -1,-5q-2,-3 -10,-9q-8,-7 -12,-8l-5,-1l0,0l-1,0l0,0l0,0l0,1l0,0l-1,0l0,1l-1,0l0,0l0,-1l0,-1l1,-1l0,-1l-1,0l-2,0l0,0l0,0l2,-1l1,-1l3,0q4,0 8,2q5,0 54,-68l48,-68l0,0q1,0 1,-1l0,0l1,0q0,-1 0,-1l0,0l0,0q1,0 1,-1z"/>
  <path id="svg_23" fill="#ffffff" fill-rule="evenodd" stroke="#000000" stroke-width="1px" d="m715,22l0,0l2,-1l2,0l0,1l-1,2l0,0l0,0l0,1l0,0l-1,1l-1,1l0,1l0,1l-1,0q0,1 -5,8q-6,8 -20,29l-14,22l-1,0l0,0l0,1l-1,0l0,1l0,1l-1,0q0,1 -1,2l-1,2l0,1q-1,0 -11,16q-12,16 -19,26q-7,11 -22,32q-14,20 -20,31q-7,11 -10,15q-4,4 -7,9q-2,5 -3,5q-1,0 -4,5l-3,4l0,0l0,1l0,0l0,0l-1,1l-1,1l0,1l0,1l-1,0l0,0l0,1l0,0l-1,0l0,1l0,0l0,0l-1,0l0,0l-2,0l-2,0l0,0l-1,0l0,0l0,0l0,-1l0,0l-1,0l0,-1l0,0l-1,0l0,-2l0,-2l1,-1l1,-1l2,-6q4,-5 3,-5q0,-1 0,-1l0,0l0,0q0,0 1,-1l0,0l0,0q0,0 0,-1l0,0l0,-1q0,-1 1,-1l1,0l0,0q0,0 0,-1l1,0l0,0q1,0 1,-1l0,0l0,0l0,-1l0,0q0,-1 0,-1l1,0l0,0q0,0 1,-1l0,0l1,1q1,0 5,-7q5,-7 4,-7l-1,0l0,0q0,0 1,-1l0,0l0,0q0,-1 0,-1l1,0l7,-11q7,-11 20,-30q14,-18 14,-19l0,0l0,0q0,0 1,0l0,-1l1,0l1,-1l0,0l1,0l0,0l0,0l0,-1l0,0l1,0l0,-1l0,0l1,0l0,0l0,0l-1,-1l-1,0l0,0q0,-1 0,-1l1,0l0,0l0,0l1,-1l0,0l1,0q1,-1 0,-1l-1,0l0,0q0,0 0,-1l1,0l0,0q0,-1 1,-1l0,0l0,-1q0,-1 1,-1l0,0l0,0q0,0 1,-1l0,0l0,-1q0,-1 1,-1l1,0l1,0q1,0 10,-13q9,-13 25,-34q15,-22 26,-37q12,-16 12,-16l0,-1l0,0l0,0l1,-1l1,-1l0,-1l0,-1l1,0z"/>
  <path id="svg_24" fill="#101012" fill-rule="evenodd" stroke="#101012" stroke-width="1px" d="m674,95l0,0l0,0q-1,1 -2,0l-1,0l1,-2q1,-1 1,-2l1,0l0,-1l0,-1l1,0l0,-1l0,0l1,0l14,-22q14,-21 20,-29q5,-7 5,-8l1,0l0,-1l0,-1l1,-1l1,-1l0,0l0,-1l0,0l0,0l1,-2l0,-1l-2,0l-2,1l0,0l-1,0l0,1l0,1l-1,1l-1,1l0,0l0,0l0,1q0,0 -22,29q-20,29 -26,38q-6,8 -19,26l-13,17l0,0l0,1l0,0l0,0l-1,0l0,0l0,1l-1,0l0,0l0,1l0,0l0,0l-1,0l0,0l0,1l-1,0l0,0l0,1l-1,0l-1,0l0,-1l0,-1l1,0l1,0l0,-1l0,0l1,0l0,-1l0,0l1,0l0,0l0,-1l0,0l0,0l1,-1l0,0l0,0l0,0l1,-1l0,0l0,-1l0,0l0,0q0,0 1,0l0,-1l0,0q0,-1 1,-1l0,0l0,0q0,0 0,-1l1,0l0,-1l0,0l0,0q0,0 1,-1l0,0l0,0q0,-1 0,-1l1,0l0,0q0,0 1,-1l0,0l6,-8q5,-9 14,-22q10,-14 22,-33q14,-18 17,-24q3,-5 4,-6l1,-1l0,0l0,-1l0,0l0,0l1,-2l1,-1l0,0l0,-1l0,0l0,0l1,0l0,0l0,-1l1,0l0,-1l0,-1l-1,0l-1,1l0,0l0,0l-1,0l0,0l0,1l-1,0l0,1l0,1l-1,0l0,1l-1,0l-1,0l0,1q-1,0 -31,38l-30,38l0,1q0,0 -1,0l0,0l0,0q-1,1 -1,2l0,0l0,0l0,1l-1,0l0,0l0,1l-1,0l0,0l0,0l0,0l0,1l-1,0l0,1l0,0l-1,0l0,0l0,0l0,1l0,0l-1,0l0,1l0,0l-1,0l0,0l0,0l0,1l0,0l-1,0l0,0l0,-1l1,-1l0,0l0,-1l0,0l0,0l1,0l0,0l0,-1l1,0l0,0l0,-1l0,0l0,0l1,-1l1,-1l0,0l0,0l1,-2q1,-2 4,-4q3,-3 35,-44q32,-41 31,-43q-1,-3 -4,-6q-3,-4 0,-4q2,1 7,4q6,3 8,2q3,-1 6,0q2,1 4,5q2,5 4,13q4,8 3,9q0,0 -4,-7q-3,-8 -7,-4q-4,4 -26,35q-22,31 -22,31z"/>
  <path id="svg_25" fill="#000000" fill-rule="evenodd" stroke="#000000" stroke-width="1px" d="m718,440l0,0l0,-1l1,0l1,5q2,4 1,8q-1,5 -3,7q-2,2 -1,11q1,8 1,13l0,5l-1,0l-1,0l0,0l0,-1l-1,0l0,0l0,-6q-1,-6 -1,-11q-2,-6 -2,-8q-2,-2 -2,-8q-1,-6 -2,-9l-1,-3l0,0l1,0l0,0l0,0l0,-1l1,0l0,0l0,1l0,0l1,0l0,1l0,1l2,0q1,0 3,-1q1,-2 2,-3l0,0l0,0l1,0l0,0zm-3,12q3,0 3,2q0,3 -3,3q-2,1 -2,-2q-1,-3 2,-3z"/>
  <path id="svg_26" fill="#000000" fill-rule="evenodd" stroke="#000000" stroke-width="1px" d="m223,690l-1,0l0,1l0,1l-16,22q-16,22 -21,31q-6,9 -9,13q-2,3 -2,6q0,3 0,4q2,2 1,5q-1,3 -7,10q-7,7 -11,7q-5,0 -41,52q-36,51 -48,70q-14,19 -32,47q-20,28 -22,33q-2,6 -3,10q-1,3 0,6q1,3 2,3q1,0 1,1q0,1 1,1l1,0l0,1l0,1l1,0l1,1l0,0l0,0l1,0l0,0l0,1l1,0l0,1l0,1l-1,0l-1,0l0,0l-1,-1l0,0l-1,0l0,0l0,0l0,-1l0,0l0,-1l0,0l-1,0l0,0l-1,0l0,0l0,-1l0,0l-1,0l0,-1l0,0l-1,0l0,0l0,0l0,-1q0,0 -1,-1l0,-1l0,-1q-1,0 -1,0l0,-1l0,-1q0,0 -1,-5q-1,-5 3,-13q3,-7 4,-7q1,-1 5,-6q3,-6 31,-45q26,-40 30,-46q4,-5 14,-20q10,-16 27,-40l17,-24l0,-1l0,0l1,-1l1,-1l0,0l0,-1l0,0l0,0l1,0l0,0l0,-1l1,0l0,-1l0,-2l-2,0l-2,0l-1,1l-1,1l-1,0l-1,0l-8,5q-8,5 -16,7q-8,2 -11,0q-3,0 -5,0l-2,0l-1,0l-1,0l-1,-1l-1,0l0,-1l0,-1l0,-1l0,-1l2,0l1,-1l-1,0l-1,0l0,-1l0,-1l1,0l1,0l0,1l1,0l0,0l0,1l0,0l0,0l3,1q3,1 9,1q7,0 11,-2q4,0 5,-1l1,0l0,-1q-1,-2 -1,-7q-2,-5 1,-8q3,-3 3,-11l0,-9l-1,-1l0,-2l0,0l1,0l0,-1l0,-1l1,-1l1,-1l0,0l0,0l0,0l0,0l1,6l1,6l0,2l0,3l1,1l1,1l0,0l0,1l1,0l1,0l0,-1l0,0l1,0l0,-1l0,0l1,0l0,0l0,0l0,-1l0,0l-1,-3l-1,-2l0,-4l0,-5l-1,-2l0,-2l0,0l1,0l0,0l0,1l0,0l0,0l1,-2l1,-1l0,0l0,0l0,3l0,4l2,5q0,5 3,6q2,1 4,2q3,1 3,2l0,1l1,1l0,1l1,0l2,0l0,-1q0,0 6,-8q6,-9 11,-16l5,-8l0,-1l0,-1l1,0l0,-1l0,0l-1,0l0,-1l0,-1l-1,0l0,0l0,-1l-1,0l0,0l0,-1l0,0l0,0l-1,0l0,0l-2,0l-2,0l0,0l-1,0l0,2l0,1l-2,4q-2,4 -3,5l-1,1l0,1l0,1l-1,1l-1,1l0,1l0,1l-1,0l0,1l-1,0l-1,0l0,-1l-1,0l0,0l0,-1l0,0l0,0l1,-2l1,-1l0,-1l0,-1l1,0l0,-1l0,0l1,0l0,-1q0,-1 2,-4q2,-3 2,-9q2,-5 -2,-8q-3,-2 -9,-7q-6,-5 -6,-6q0,-1 -7,-5q-8,-5 -8,-6q0,-1 -4,-3q-3,-2 -3,-3q0,-1 -2,-2q-2,0 -5,0q-2,0 -8,5q-6,5 -16,20l-10,15l-1,1l-1,1l0,1l0,1l-1,1l-1,1l0,0l0,0l0,1l0,0l-1,0l0,1l0,0l-1,0l0,-1l0,-1l1,-2l1,-1l0,-1l0,-1l1,-1l1,-1l0,0q0,-1 7,-11q7,-11 15,-20l8,-10l2,0q2,0 6,0q3,0 3,-2l0,-3l1,0l1,0l0,1l-1,1l0,0l0,1l0,0l0,0l19,15q19,15 19,15l0,0l1,1l1,1l0,0l0,0l1,0l0,0l0,1l1,0l0,0l0,1l1,0l1,0l0,-1l0,0l1,-3l0,-2l0,0l1,0l0,0l0,0l0,0l1,0l0,0l1,0l0,0l0,0l0,5q0,5 0,5l0,0l0,1l0,0l1,0l0,1l0,0l1,0l0,0l0,0l0,1l0,0l1,0l0,1l1,0l1,0l1,0l0,0l0,0l0,0l1,0l0,0l0,-1l1,0l0,-6q0,-6 0,-8q0,-2 -2,-15l-2,-13l0,-1l0,-2l-1,-1l0,-1l0,0l1,0l0,0l0,0l1,0l1,0l0,0l0,0l0,0l0,0l1,2l1,2l2,9q2,9 2,23l0,13l1,0l0,1l1,0l0,0l0,-1l0,0l1,-1l1,-1l0,0l0,-1l0,0l0,0l1,0l0,0l0,-1l1,0l0,0l0,-1l0,0l0,0l1,0l0,0l0,-1q1,0 9,-13q10,-13 14,-20l5,-6l0,-1l1,0l0,-1q0,-1 1,-2l1,0l2,0q3,-1 3,0q0,1 -1,1q-1,1 -1,1zm-61,84q4,-6 6,-5q3,0 2,5q-2,4 -6,8q-4,4 -6,3q-2,-1 -1,-4q1,-3 5,-7zm-37,19l-1,0l0,0q0,-1 0,-2q0,-2 2,-4l3,-3l6,-2q6,-4 8,-3q1,0 1,4q0,4 -4,6q-3,3 -9,3q-6,2 -6,1zm-33,12q0,-1 2,-1l2,0l1,1l1,1l-3,0q-3,0 -3,-1z"/>
  <path id="svg_27" fill="#000000" fill-rule="evenodd" stroke="#141110" stroke-width="1px" d="m717,435l1,0l0,1l0,1l1,1l0,1l-1,0l0,1l0,0l0,0l-1,0l0,0l0,0l-1,0l0,-1l0,-1l-1,0l-1,0l-1,0l-1,0l-1,0l-1,0l0,1l0,1l-1,0l0,0l0,1l0,0l-1,0l0,1l0,0l0,0l-1,0l0,0l0,-1l1,-1l1,-4q1,-3 0,-7q-2,-3 -3,-4q-2,-1 -2,-4q-1,-3 -6,-5q-6,-2 -10,-9q-4,-7 -3,-13q1,-7 4,-12q3,-5 5,-6q2,-2 2,-8q0,-5 3,-6q2,-1 1,-22q0,-22 1,-28q1,-6 2,-9q0,-3 1,-3q1,0 -1,8q-1,9 0,28q1,18 3,20q1,2 4,5q2,2 3,5q1,3 6,5q5,2 8,6q3,4 3,10q2,6 -1,15q-2,8 -7,10q-5,2 -6,6q0,5 -2,6q-1,0 0,4q0,5 2,6q1,0 1,1zm-9,-68l-1,3l-3,0q-4,0 -3,-2q0,-2 3,-2q4,-1 4,1zm-17,22l1,-4l0,0l0,-1l0,0l0,0l1,0l0,0l0,-1l1,0l0,0l0,-1l0,0q0,0 3,-2q3,-2 9,-4q7,-2 10,-1q3,1 6,3q3,4 4,7q0,4 -2,4q-1,1 -17,3q-16,2 -16,-3zm28,8l2,-1l2,0q2,0 2,4q-1,3 -6,6q-6,4 -14,4q-8,0 -10,-4l-3,-4l0,-1l0,-1l12,-1q13,-1 15,-2z"/>
  <path id="svg_29" fill="#0E0F13" fill-rule="evenodd" stroke="#0E0F13" stroke-width="1px" d="m538,294l1,0l-75,111q-76,111 -76,111l0,0l0,1l0,0l-1,1l-1,1l0,0l0,1l0,0l0,0l-1,0l0,0l0,1l-1,0l0,0l0,1l0,0l-1,0l0,-2l0,-2l-1,0l-1,0l0,-1l0,0l1,0l1,-1l0,0l1,0l0,-1l0,-1l1,0q0,0 15,-21q14,-21 19,-28q5,-7 23,-35q19,-28 46,-68q28,-40 36,-52l8,-11l1,-1q1,-1 1,-1l0,0l0,0l0,1l0,0l0,0l1,0l0,0l0,-1l1,0l0,0l0,-1l0,0l0,0l1,-1q0,-1 1,-1zm-152,221l1,1l0,0l-1,0l0,0q0,0 0,0q-1,-1 0,-1z"/>
  <path id="svg_31" fill="#ffffff" fill-rule="evenodd" stroke="#000000" stroke-width="1px" d="m223,754l0,0l1,-1l1,0l0,1l-1,2l0,1l0,1l-1,1l-1,1l0,0l0,0l0,1l0,0l-1,0l0,1l-8,12q-8,12 -15,23q-8,11 -8,12q0,0 1,1l0,0l0,0q0,0 -1,1l0,0l0,0q0,1 0,1l-1,0l-1,0q-2,0 -5,5q-3,5 -4,6l-1,1l0,1l0,1l-1,0l0,0l0,1l-1,0l0,0l0,1l0,0l0,0l-1,0l0,0l-1,0l-1,0l-1,0l-1,0l0,-1l0,-1l0,0l1,0l0,-1l0,-1l1,0l0,0l0,-1l1,0l0,0l0,-1l0,0l0,0l1,0l0,0l0,-1l1,0l0,0q0,-1 4,-6l3,-6l1,0l0,-1l0,0l0,0l0,0l0,0l1,-1l1,-1l0,0l0,0l0,-1l0,0l1,0l0,-1l0,0l1,0l0,-1q0,-1 5,-9l4,-8l1,0q0,0 0,-1l0,0l0,0q1,-1 1,-1l0,0l1,0q0,0 0,-1l0,0l0,0q1,-1 10,-13l10,-12l0,-1l0,-1l1,0l0,0l0,-1l1,0l0,0l0,-1l0,0l0,0l1,0z"/>
  <path id="svg_32" fill="#111113" fill-rule="evenodd" stroke="#111113" stroke-width="1px" d="m584,173l1,0l0,1q0,0 -1,1l-1,1l0,0q0,1 -1,1l0,0l0,1q-1,0 -10,12q-10,12 -19,25q-10,13 -9,15l1,2l0,0l0,0l1,0l0,0l0,1l1,0l0,1l0,1l1,0l0,1l0,0l1,0l0,0l0,0l1,1l1,1l0,0l0,0l1,0l0,0l1,1l1,1l0,0l1,0l0,0l0,0l2,0l1,0l0,0l1,0l0,0l0,0l4,-7q4,-7 4,-7l1,0l0,0q0,0 1,-1l0,0l0,-1l0,0l0,0q0,0 1,0l0,-1l0,0q1,0 1,-1l0,0l0,0q0,0 0,-1l1,0l0,-1q1,-1 1,-1l0,0l0,0q0,-1 0,-1l1,0l0,0q0,0 1,-1l0,0l4,-6q4,-6 5,-7l0,0l0,0q1,0 1,0l0,-1l0,0q0,-1 0,-1l1,0l0,0q1,0 1,1q0,1 -6,9q-6,7 -12,16l-6,10l-1,1l-1,1l0,2l0,2l1,0l0,0l0,1l1,0l0,0l0,1l0,0l0,0l1,0l0,0l2,0l2,0l0,0l1,0l0,0l0,0l0,-1l1,0l0,0l0,1l0,0q1,0 1,0l0,0l0,-1l0,0l1,0l0,-1l1,0l1,0l0,1l-1,1l0,0l0,0l0,1l0,0l-1,0l0,1l0,0l-1,0l0,0l0,0l0,1l0,0l-1,1q-1,1 -6,10q-6,8 -14,20l-8,12l0,0l-1,0l0,1l0,1l-1,0l0,0l-1,0l0,0l0,1l0,0l0,0l-1,1l0,0l-1,0l0,0l0,0l0,1l0,0l-1,0l0,1l0,0l-1,0l0,0l0,0l0,-1l0,0l0,-1l0,-1l1,-1l1,-1l0,0l0,-1l0,0l0,0l1,-1l1,-1l4,-7q5,-7 6,-8q1,0 6,-8q6,-9 6,-9l0,0l1,-1l1,-1l0,-3l0,-3l-1,0l0,0l0,-1l-1,0l0,0l0,-1l-2,0l-3,0l0,1l-1,0l0,0l0,1l0,0l0,0l-1,0l0,0l0,1l-1,0l0,0l0,1l0,0q0,0 -1,2q-1,1 -5,7q-4,6 -11,16l-7,10l0,0l0,1l0,0l0,0l-1,0l0,0l0,1l-1,0l0,0l0,0l-1,0l-1,1l0,0l0,0l-1,0l0,0l-1,1l-1,0l0,-1l0,-1l1,0l1,-1l0,0l1,0l0,-1l0,-1l1,-1l1,-1l6,-9q6,-9 12,-17q6,-7 6,-8l0,-1l1,-1l1,-1l0,-2l0,-2l-1,0l0,-1l-1,0l-1,0l0,-1l-1,0l0,0l0,-1l-4,0q-5,0 -6,-1q0,-1 -2,-1q-3,0 -25,26q-21,26 -33,40q-11,14 -16,20q-5,7 -6,7q-1,1 -9,11l-8,10l0,0l-1,0l0,1l0,1l-1,0l0,0l0,0l-1,1l0,0l0,0l0,1l0,0l-1,0l0,0l0,0l-1,1l0,0l0,0l0,1l0,0l-1,0l0,0l0,-2l1,-1l0,0l0,-1l0,0l0,0l1,0l0,0l0,-1l1,0l0,0l0,-1l0,0l0,0l1,0l0,0l0,-1l1,0l0,0l0,-1l24,-30q24,-30 46,-58q22,-27 21,-29q-1,-3 -2,-4q-1,-1 -2,-3l0,-2l8,0q7,1 28,-25q21,-25 22,-26z"/>
  <path id="svg_33" fill="#0E0F12" fill-rule="evenodd" stroke="#0E0F12" stroke-width="1px" d="m671,96l0,-1l1,0q1,1 2,0l0,0l0,1q0,1 -19,28q-19,27 -31,45q-12,18 -20,29q-8,12 -18,27l-10,15l-1,0l0,0l0,1l-1,0l0,1l0,1l-1,0l0,1l0,0l0,0l-1,0l0,0l0,1l0,0l0,0l-1,1l0,0l0,0l-1,0l-1,0l0,-1l0,0l0,0l0,-1l0,0l1,0l0,-1l0,-1l1,-1l1,-1l0,0l0,0l0,-1l0,0l3,-4q3,-5 4,-5q1,0 3,-5q3,-5 7,-9q3,-4 10,-15q6,-11 20,-31q15,-21 22,-32q7,-10 19,-26q10,-16 11,-16z"/>
  <path id="svg_34" fill="#ffffff" fill-rule="evenodd" stroke="#fcfcfc" stroke-width="1px" d="m719,397l2,-1l2,0q2,0 2,4q-1,3 -6,6q-6,4 -14,4q-8,0 -10,-4l-3,-4l0,-1l0,-1l12,-1q13,-1 15,-2z"/>
  <path id="svg_35" fill="#F5F5F5" fill-rule="evenodd" stroke="#F5F5F5" stroke-width="1px" d="m691,389l1,-4l0,0l0,-1l0,0l0,0l1,0l0,0l0,-1l1,0l0,0l0,-1l0,0q0,0 3,-2q3,-2 9,-4q7,-2 10,-1q3,1 6,3q3,4 4,7q0,4 -2,4q-1,1 -17,3q-16,2 -16,-3z"/>
  <path id="svg_36" fill="#ffffff" fill-rule="evenodd" stroke="#BABABA" stroke-width="1px" d="m124,741l0,-4l1,0l1,1l0,0l0,0l1,0l0,0l0,1l1,0l0,0l0,1l0,0l0,0l1,2l1,1l0,3q0,3 1,4l1,2l0,2l0,2l1,0l0,1l0,2l1,2l0,5l0,4l1,2l1,3l0,0l0,1l0,0l0,0l-1,0l0,0l0,1l-1,0l0,0l0,1l-1,0l-1,0l0,-1l0,0l-1,-1l-1,-1l0,-3l0,-2l-1,-6l-1,-6l0,0l0,0l0,-2q0,-2 -2,-6l-2,-5l0,-4z"/>
  <path id="svg_37" fill="#000000" fill-rule="evenodd" stroke="#000000" stroke-width="1px" d="m715,493l0,-6l1,0q1,1 2,1l0,0l0,11q0,11 0,12l0,1l-1,0l0,0l0,1l-1,0l0,0l0,1l-2,0l-1,0l-1,1l-1,1l-1,0l-2,0l-2,-1l-2,-1l-1,0l-1,0l0,-1q0,0 -1,0q0,-1 -2,-5l-3,-4l0,-4l0,-3l1,-1l0,-2l1,0l1,0l1,7q1,7 2,7q0,0 0,1l0,0l1,0l0,1l0,0l1,0l0,0l0,0l0,1l0,0l1,0l0,1l3,0l4,0l0,-1l0,0l1,0l0,-1l0,0l1,0l0,0l0,0l0,-1l0,0l1,0l0,-1l0,0l1,0l0,-4q0,-5 -1,-11z"/>
  <path id="svg_38" fill="#0D0E12" fill-rule="evenodd" stroke="#0D0E12" stroke-width="1px" d="m523,290l1,0l1,-1l1,0l-10,14q-10,14 -41,58q-31,43 -49,69q-18,26 -30,43q-12,17 -12,18l0,1l-1,0l0,0l0,1l-1,0l0,0l0,1l0,0l0,0l-1,0l0,1l-1,0l0,-1l-1,0l-1,0l0,1l0,1l-1,0l-1,0l0,-1l0,-1l1,0l0,0l0,-1l1,0l0,0l0,-1l0,0l0,0l1,0l0,0l0,-1l1,0l0,-1q0,-1 50,-70q48,-70 70,-100l21,-29l0,0q1,0 1,-1l0,0l1,0z"/>
  <path id="svg_39" fill="#171717" fill-rule="evenodd" stroke="#171717" stroke-width="1px" d="m164,671l2,0l0,0q0,1 0,1l1,0l0,0q0,0 1,1l0,0l0,1q0,0 1,0l0,0l0,1l1,0l0,1l0,1l1,0l0,1l1,0l1,0l1,1l0,0l1,3q1,2 1,4l0,2l0,0l0,0l-1,0l-1,0l0,0l0,0l-1,0l0,0l0,-1q-1,-1 -3,-5q-4,-5 -7,-6q-3,-2 -18,-1q-15,1 -22,3l-7,2l-1,1l-1,1l-1,0l-1,0l0,1l0,1l-1,0l0,0l0,1l1,0l0,0l0,1l0,0l0,0l1,0l0,0l0,1l1,0l0,0l0,1l0,0l0,0l1,0l0,1l-1,0l-1,-1l-1,0l-1,0l0,-1l-1,0l0,-2l0,-2l-1,-1l0,-1l1,0l0,-1l0,0l0,0l6,-3q7,-3 14,-5q7,-2 20,-2q12,0 14,1z"/>
  <line id="svg_22" y2="24.999986" x2="724" y1="309.000011" x1="703" stroke-width="5" stroke="#000000" fill="none"/>
  <line id="svg_42" y2="357" x2="703" y1="308" x1="703" stroke-linecap="null" stroke-linejoin="null" stroke-dasharray="null" stroke-width="5" stroke="#000000" fill="none"/>
 </g>
</svg>